HIERARCHY
ROOT Hips
{
	OFFSET -3.958830 18.904000 13.208200
	CHANNELS 6 Xposition Yposition Zposition Zrotation Yrotation Xrotation 
	JOINT LHipJoint
	{
		OFFSET 0.000000 0.000000 0.000000
		CHANNELS 3 Zrotation Yrotation Xrotation
		JOINT LeftUpLeg
		{
			OFFSET 1.800000 -1.400000 0.085000
			CHANNELS 3 Zrotation Yrotation Xrotation
			JOINT LeftLeg
			{
				OFFSET 2.215000 -6.000000 0.000000
				CHANNELS 3 Zrotation Yrotation Xrotation
				JOINT LeftFoot
				{
					OFFSET 2.500000 -6.900000 0.000000
					CHANNELS 3 Zrotation Yrotation Xrotation
					JOINT LeftToeBase
					{
						OFFSET 0.200000 -0.500000 1.950000
						CHANNELS 3 Zrotation Yrotation Xrotation
						End Site
						{
							OFFSET 0.000000 0.000000 0.000000
						}
					}
				}
			}
		}
	}
	JOINT RHipJoint
	{
		OFFSET 0.000000 0.000000 0.000000
		CHANNELS 3 Zrotation Yrotation Xrotation
		JOINT RightUpLeg
		{
			OFFSET -1.800000 -1.400000 0.085000
			CHANNELS 3 Zrotation Yrotation Xrotation
			JOINT RightLeg
			{
				OFFSET -2.215000 -6.000000 0.000000
				CHANNELS 3 Zrotation Yrotation Xrotation
				JOINT RightFoot
				{
					OFFSET -2.500000 -6.900000 0.000000
					CHANNELS 3 Zrotation Yrotation Xrotation
					JOINT RightToeBase
					{
						OFFSET -0.200000 -0.500000 1.950000
						CHANNELS 3 Zrotation Yrotation Xrotation
						End Site
						{
							OFFSET 0.000000 0.000000 0.000000
						}
					}
				}
			}
		}
	}
	JOINT LowerBack
	{
		OFFSET 0.000000 0.000000 0.000000
		CHANNELS 3 Zrotation Yrotation Xrotation
		JOINT Spine
		{
			OFFSET -0.087000 1.940000 -0.288900
			CHANNELS 3 Zrotation Yrotation Xrotation
			JOINT Spine1
			{
				OFFSET 0.000000 1.950000 0.060000
				CHANNELS 3 Zrotation Yrotation Xrotation
				JOINT Neck
				{
					OFFSET 0.000000 0.000000 0.000000
					CHANNELS 3 Zrotation Yrotation Xrotation
					JOINT Neck1
					{
						OFFSET 0.000000 1.600000 0.340000
						CHANNELS 3 Zrotation Yrotation Xrotation
						JOINT Head
						{
							OFFSET 0.000000 1.667000 -0.240000
							CHANNELS 3 Zrotation Yrotation Xrotation
							End Site
							{
								OFFSET 0.000000 0.000000 0.000000
							}
						}
					}
				}
				JOINT LeftShoulder
				{
					OFFSET 0.000000 0.000000 0.000000
					CHANNELS 3 Zrotation Yrotation Xrotation
					JOINT LeftArm
					{
						OFFSET 2.700000 1.550000 -0.730000
						CHANNELS 3 Zrotation Yrotation Xrotation
						JOINT LeftForeArm
						{
							OFFSET 5.450000 0.000000 0.000000
							CHANNELS 3 Zrotation Yrotation Xrotation
							JOINT LeftHand
							{
								OFFSET 3.450000 0.000000 0.000000
								CHANNELS 3 Zrotation Yrotation Xrotation
								JOINT LeftHandIndex1
								{
									OFFSET 0.750000 0.000000 0.000000
									CHANNELS 3 Zrotation Yrotation Xrotation
									End Site
									{
										OFFSET 0.000000 0.000000 0.000000
									}
								}
							}
						}
					}
				}
				JOINT RightShoulder
				{
					OFFSET 0.000000 0.000000 0.000000
					CHANNELS 3 Zrotation Yrotation Xrotation
					JOINT RightArm
					{
						OFFSET -2.700000 1.550000 -0.730000
						CHANNELS 3 Zrotation Yrotation Xrotation
						JOINT RightForeArm
						{
							OFFSET -5.450000 0.000000 0.000000
							CHANNELS 3 Zrotation Yrotation Xrotation
							JOINT RightHand
							{
								OFFSET -3.450000 0.000000 0.000000
								CHANNELS 3 Zrotation Yrotation Xrotation
								JOINT RightHandIndex1
								{
									OFFSET -0.750000 0.000000 0.000000
									CHANNELS 3 Zrotation Yrotation Xrotation
									End Site
									{
										OFFSET 0.000000 0.000000 0.000000
									}
								}
							}
						}
					}
				}
			}
		}
	}
}
MOTION
Frames: 6
Frame Time: 0.016667
-0.024790 16.189390 -2.628510 -3.885830 -1.120340 16.601486 -16.140637 9.831131 6.262717 27.165712 -5.250565 -54.768477 -12.086504 17.550055 44.389359 0.248611 10.491725 0.971519 0.489220 0.093090 0.369270 18.217682 -6.930541 3.966466 -27.923648 2.858893 -46.973324 18.291694 -15.890840 37.559563 -0.669963 -7.672366 1.864491 0.162740 0.408650 0.161470 -2.193373 -3.319883 -9.646651 -3.463876 3.131648 22.195134 4.308488 2.132988 7.637852 0.821088 1.102067 -8.305034 0.578336 1.000385 26.838082 -2.316550 2.995720 -7.140550 -12.618626 -3.307763 1.673641 -0.995550 15.633853 -4.036325 53.982088 -53.588792 -22.970539 -3.817001 2.736669 0.406390 0.343510 -0.280560 0.246180 11.425068 4.240701 5.717820 10.514377 -23.144874 -8.715719 -22.859018 54.211642 -9.095663 1.533195 -1.836768 -0.280470 0.275160 -0.056410 -0.308600 
-0.088490 16.133330 -2.620840 -3.335601 -0.597550 14.249968 -16.125882 10.038958 6.118715 26.129509 -5.258590 -53.899474 -10.021138 17.541686 47.156523 0.326968 10.705436 0.911812 0.464570 0.052800 0.359270 18.194693 -7.005084 3.962864 -28.616355 3.004838 -45.804061 18.480687 -17.005603 40.240062 -0.783047 -8.172968 1.714489 0.121580 0.395570 0.144100 -2.167846 -3.468668 -9.687076 -3.976113 3.338226 24.978426 4.076501 2.428452 6.937530 0.905090 0.631326 -8.741704 -0.305177 0.899673 27.581050 -1.606180 2.307630 -7.061020 -14.501448 -4.995304 2.120585 0.975809 16.805815 -3.467704 46.630930 -50.416724 -17.828469 -3.819500 2.857058 0.430500 0.308700 -0.271950 0.239030 13.117487 6.536014 6.243274 5.049542 -21.083371 -6.283039 -21.399665 48.220684 -6.807778 1.646713 -1.803720 -0.280890 0.276040 -0.051790 -0.305800 
-0.153670 16.081980 -2.609980 -2.952202 0.424008 11.658101 -16.072124 10.264943 5.967333 24.777831 -5.520321 -53.139501 -7.223535 16.978448 50.278503 0.377028 10.882906 0.884566 0.430510 -0.017090 0.313190 18.199017 -7.144650 3.939838 -28.891385 3.219383 -44.556367 18.050579 -18.069436 43.439106 -0.896656 -8.706601 1.557500 0.084670 0.417450 0.116600 -2.234903 -3.561687 -9.726893 -3.558766 2.814289 27.948116 3.391150 2.312809 5.964061 0.915569 -0.712900 -9.285903 -2.693396 1.010267 28.339480 0.002670 0.704010 -6.066790 -15.650889 -6.136753 2.724733 0.219928 16.298433 -3.247898 40.654160 -44.947012 -13.220389 -3.788104 2.926876 0.469310 0.275140 -0.292020 0.255380 14.230983 8.830030 6.681441 0.143624 -17.928341 -4.423126 -18.847320 42.573850 -4.585658 1.731943 -1.774680 -0.314730 0.293340 -0.037550 -0.297510 
-0.210140 16.031520 -2.582690 -2.967891 1.358595 9.161001 -16.016583 10.454808 5.814911 23.854647 -5.462461 -52.179225 -4.725339 16.433454 53.013664 0.408401 11.075507 0.827377 0.408450 -0.088260 0.319630 18.205942 -7.318602 3.896198 -28.907230 3.667664 -42.950655 18.069833 -19.044181 45.918193 -1.006185 -9.149319 1.416352 0.046590 0.405290 0.106120 -2.314676 -3.515216 -9.741030 -2.726684 2.416094 29.780017 2.871497 2.336847 5.596391 1.085320 -1.224218 -9.954986 -3.797576 0.945876 29.990478 0.470350 -0.090350 -5.237060 -15.918655 -7.130354 3.339840 -1.509588 15.164742 -3.258752 36.209898 -39.214809 -9.874462 -3.760000 2.942657 0.516490 0.244720 -0.297740 0.240050 14.128247 10.354694 7.141958 -2.092953 -12.374367 -3.345578 -17.524115 32.895173 -2.660701 1.806686 -1.659604 -0.339840 0.287660 -0.020590 -0.320230 
-0.274000 15.984640 -2.530590 -2.721972 1.719275 6.688058 -15.982203 10.687601 5.592002 23.015791 -5.065969 -50.434250 -2.967408 16.223314 55.106149 0.489947 11.243043 0.789935 0.406980 -0.087600 0.322260 18.189255 -7.487529 3.873481 -28.843149 4.299654 -41.634576 17.576706 -19.820091 48.891572 -1.131591 -9.600820 1.299435 0.036280 0.398270 0.079040 -2.334869 -3.490115 -9.715983 -2.368491 2.711531 30.226358 2.714155 2.840691 5.644323 1.116715 -1.548047 -10.268558 -4.847339 0.781154 32.501692 0.800680 -0.887900 -4.331210 -16.664945 -8.245436 3.597249 -2.106361 12.028986 -3.042572 30.774027 -33.942849 -6.996137 -3.735792 2.925663 0.519560 0.223220 -0.288590 0.248910 14.795892 11.919543 7.493277 -4.453819 -8.225695 -2.785351 -15.972400 25.989036 -1.675053 1.895732 -1.562636 -0.338620 0.307670 -0.036160 -0.309690 
-0.343960 15.922490 -2.454880 -2.588736 1.902028 4.012499 -15.929899 10.932765 5.321540 22.478037 -4.304408 -48.248782 -0.871454 15.984543 57.509392 0.542641 11.446886 0.707615 0.441880 -0.053450 0.378060 18.179659 -7.731935 3.830359 -28.759653 5.100896 -39.713857 17.354013 -20.588809 51.541145 -1.283336 -10.013064 1.181965 0.045380 0.341500 0.064350 -2.395797 -3.307966 -9.669157 -1.697489 3.132082 30.160299 1.824491 3.638813 5.770552 1.379772 -0.885406 -10.296409 -4.264776 0.503345 35.875064 0.680360 -0.840560 -4.903750 -18.198745 -9.523835 3.670134 -0.908127 10.221768 -2.781919 26.848268 -31.029734 -5.467906 -3.709862 2.897052 0.563860 0.182700 -0.242260 0.238500 15.702288 12.888142 7.501619 -6.172647 -3.880820 -2.571713 -13.499191 19.855438 -0.962650 1.974670 -1.440283 -0.332660 0.316420 -0.059730 -0.332530 
